<?xml version="1.0" encoding="utf-8"?>
<!-- Generator: Adobe Illustrator 26.4.1, SVG Export Plug-In . SVG Version: 6.00 Build 0)  -->
<svg version="1.1" id="Layer_1" xmlns="http://www.w3.org/2000/svg" xmlns:xlink="http://www.w3.org/1999/xlink" x="0px" y="0px"
	 viewBox="0 0 615.2 228.8" style="enable-background:new 0 0 615.2 228.8;" xml:space="preserve">
<style type="text/css">
	.st0{fill:#FFFFFF;}
</style>
<g>
	<path d="M33.2,124.2c-2.3-1.9-3.8-3.8-4-7.4c-0.2-4-2.3-8.2-6.4-10.8c-1.8-1.2-4-2.8-4.7-4.7c-1.2-3.7-1.5-7.8-2.2-12
		c2.7,0.9,4.4,1.5,6.8,2.3c0.3,0.5,1.1,1.8,1.8,3.1c5.8-6.4,7-7.1,12.1-7.1c-1.2,4.4-4,7.6-7.5,10.4c-4.1,3.2-4.4,6.5-1.1,11.6
		c3-5.4,5.8-10.4,8.5-15.3c3.2,2.9,2.4,7.3,3.4,11.2c1.5,5.6-1.5,8.7-4.9,12c0.1,0.3,0.3,0.6,0.4,0.9c2.7-0.4,5.4-0.8,8.1-1.1
		c1.4-0.1,2.9,0,4.4,0c1.8,0,3.6,0,5.5,0c-1.6,3.3-4.2,6.9-5.1,11c-1,4.1-3.5,8.4-0.7,14.2c1.7-2.4,2.6-5,4.3-5.7
		c2.6-1.1,3.6-2.5,4.1-5c0.8-4,1.9-7.9,2.9-12.2c-0.4-1.6-1-3.8-1.5-6.1c-0.3,0.2-1.2,0.7-1.3,0.8c0.1-3,0.2-6.4,0.5-9.7
		c0.2-2.4,1-4.8,1.3-7.2c0.5-3.7,0.8-7.4,1.1-11c0-0.4-0.2-1-0.4-1.3c-1.7-2.7-1.8-6.5-0.2-9.2c0.5-0.9,0.6-2,0.2-3.5
		c-2.3,2.6-4.5,5.3-7.2,8.4c3-7.7,7.7-13,15-15.8c0.6,3.1,1.3,6.2,1.9,9.3c0.3,0,0.6-0.1,0.9-0.1c0.9-2.4,1.8-4.8,2.7-7.2
		c0.4-0.5,0.7-0.9,1.1-1.4c0.3,1,0.6,1.9,0.9,2.9c1.7-1.3,3.3-2.5,5.8-4.4c-0.4,1.7-0.6,2.3-0.7,2.9c4.7,1.2,5.8-3.6,9.3-5.4
		c-1.1-0.5-1.8-0.9-2.5-1.2C89.1,49.6,91.6,47,99.1,48c-2.1,0.8-3.7,1.5-5.9,2.4c0.3,2,0.6,4.5,0.9,7.3c0.1,0-0.5,0.1-1,0.3
		c0.2,1.6,0.4,3.3,0.6,5c2.1-1.1,4.1-2.1,6.1-3.1c0.1,0.1,0.2,0.3,0.2,0.4c-1.5,1.4-3.2,2.7-4.6,4.3c-1.6,1.9-2.7,4.1-4.3,5.9
		c-1.8,1.9-4,3.4-5.8,5.3c-1,1-1.6,2.3-2.3,3.5c-1.2,2.2-2.3,4.4-3.5,6.9c-0.6,0.1-1.6,0.2-3.2,0.4c0.6,4.2,1.3,8.3,1.7,12.4
		c0.1,0.9-0.8,1.9-0.6,2.8c0.2,1.5,0.5,3,0.5,4.4c0,2.9-1.7,5.7,0.2,8.6c0.4,0.6-0.7,2.3-1.2,3.6c-0.1,0,0.6,0.1,1.8,0.3
		c-1.6,1.5-3.3,2.5-4.1,4c-0.9,1.9-1.1,4.2-1.6,6.4c-0.4,1.8-0.7,3.7-1,5.5c-0.3,0-0.7,0-1,0c2.6,3.9,5.4,7.7,7.8,11.6
		c0.9,1.4,0.8,3.4,1.4,5c0.5,1.2,1.5,2.1,2.3,3.2c1.1-0.9,2.4-1.6,3.3-2.6c1.1-1.3,2.2-2.7,2.9-4.3c0.6-1.3,0.6-2.9,0.8-4.3
		c0.3-2.2,0.8-4.5,0.6-6.7c-0.3-3.3-1.4-6.5-1.7-9.9c-0.3-3.3-0.1-6.6,0-10c0-0.6,0.8-1.3,0.6-1.6c-4.5-7,1.6-14.7-2-21.6
		c2.8-1.6,7.5-0.7,5.9-6.4c5.3-1.5,10.8-2.9,16-4.7c2-0.7,3.6-2.6,5.5-3.8c0.5-0.3,1.5,0.1,2.7,0.2c-1.7,1.8-2.8,3-4.3,4.6
		c-1.3,0.2-3.3,0.5-5.7,0.9c0.9,2.1,1.5,3.7,1.8,4.5c-1.1,3.2-2,5.9-2.6,7.7c0.7,3.7,1.3,6.7,1.9,10.3c0.1,0,1.1,0.5,2.5,1
		c-1.3,0.5-2.2,0.9-3.3,1.3c0,3,0,6,0,8.9c0,2.9,0.7,6-0.1,8.7c-1.9,6.6,2.7,11.8,3.3,17.9c0.3,2.9,3.1,5.6,4.8,8.3
		c4.2-1.3,5.5-3.5,5.9-7.7c0.7-8.9,1.1-17.7,0.2-26.6c-0.3-3.1-0.4-6.2-0.4-9.2c0-1.2,0.5-2.4,0.8-4c-0.5-0.4-1.4-1.1-1.7-1.4
		c0.5-9.9,5.8-16.2,14-20.9c-0.1-0.3-0.3-1-0.6-2c3.2-0.9,6.7-1.4,9.4-3c2.5-1.5,4.2-4.4,6.3-6.8c-1.7-1.4-2.8-2.3-3.9-3.2
		c0.2-0.4,0.4-0.7,0.6-1.1c1.7,0.9,4.3,1.4,4.9,2.8c1,2.3,2.4,5.1-1,7.5c-3.3,2.3-6,5.5-8.6,8.5c-1,1.1-1,3-1.5,4.5
		c-0.5,1.4-1.3,2.7-1.7,4.1c-0.9,3-1.5,6.1-2.3,9.3c3.4,1.3,3.6,3.6,2.4,6.4c-0.3,0.8-0.2,1.8-0.2,2.8c0,2.1-0.1,4.3,0,6.4
		c0.1,1.8,0.7,3.7,0.6,5.5c-0.3,6.2-0.7,12.4-1.3,18.6c-0.2,2.3-1.5,4.2-4.4,4.2c-0.6,0-1.5,0.5-1.8,1c-2.2,3.9-5.7,6.1-9.5,8.2
		c-2.6,1.4-3.9,3.9-2.6,7.4c1.1,3.1,1.6,6.5,2.3,9.6c2.6,0.5,5.2,0.8,7.6,1.6c2.5,0.8,4.7,2.2,7,3.3c5.7-5.9,12.3-6.8,20.6-3.8
		c-2.9-6.5-5.8-11.7-7.6-17.3c-2-6.1-3.4-12.5,0.5-17.9c-0.6-3.1-0.7-5.9-1.8-8.4c-1.5-3.5,0.1-6.8-0.1-10.2
		c-0.2-3.8-0.4-7.7-0.4-11.6c0.1-5.3-0.4-10.8,0.9-15.8c0.7-2.6,4.7-4.4,7.5-6.3c2.5-1.6,5.3-2.9,8-4.1c1.9-0.8,4-1.3,6.2-1.5
		c-2.1,4-2.2,7.6-0.5,11.4c0.2,0.5-0.6,1.5-0.8,2.2c-0.2,0.8-0.3,1.5-0.5,3c4-4.9,7.5-9.1,11.1-13.3c0.5-0.6,2-1.4,2.4-1.1
		c2.3,1.5,4.8,2.9,6.3,5c2.7,3.5,7,5.7,11,4.1c-0.6,1.6-1,2.9-1.6,4.8c2.3-0.4,4.3-0.7,6.5-1c-0.5-1.6-0.9-2.5-1-3.4
		c-0.4-2.2,0.2-3.4,2.8-3.7c5.2-0.6,10.9-0.3,13.7-6.8c0.9,1.4,1.5,2.2,2.2,3.3c0.8-0.3,1.7-0.5,2-0.6c1.2,1.1,2.3,1.8,2.9,2.9
		c0.9,1.7,1.8,3.5,1.8,5.3c-0.1,5.5-0.4,11-1.2,16.5c-0.7,5.3,1,9,5.1,12.2c2.3,1.8,3.3,5,5.1,7.5c2,2.7,4.3,5.3,7,8.6
		c0.1,0.8,0.2,2.5,0.4,5.3c-2.5-3.5-4.4-6.2-6.7-9.5c-2.7,4.8-4.8,8.5-7.1,12.6c-0.2-0.1-1.1-0.3-2.4-0.7c-0.5,3.9,0.2,7.3,2.3,10.4
		c3.2,4.8,3.1,5.4-1.6,8.6c-3.5,2.4-6.8,4.9-10.3,7.2c-2.2,1.5-4.1,0.2-5-2.4c-1.4-3.7-3.3-7.3-5-10.9c-0.2-0.4-0.1-0.9-0.1-1.3
		c-0.1-6.9-0.2-13.9-0.3-20.8c-0.1-5.4-0.3-10.8-0.3-16.2c0-1.8,0.5-3.6,0.8-5.4c-0.3-0.1-0.6-0.2-1-0.2c-0.4,0.5-0.8,0.9-1.4,1.6
		c-1-2-1.8-4-2.9-5.8c-1.8-2.7-3.5-5.6-5.7-7.8c-4.2-4.3-8.1-3.5-9.5,2.2c-1.5,6.3-5.6,9.2-11.1,11.3c-2.9,1.1-7.1,1.4-7.7,5.6
		c-0.5,3.5-0.7,7-0.8,10.6c0,2-0.2,4.1,0.1,6.1c0.2,1.6,0.8,3.1,1.3,4.7c0.5,2,1.1,3.4,3.4,4.5c2.7,1.3,4.7,4.1,7.3,6.5
		c0.5-0.6,1.2-1.5,2.3-2.8c1.2,1.9,2.3,3.8,3.2,5.3c3.3-2,6.5-3.8,9.6-5.7c0.3,0.3,0.7,0.7,1,1c-0.5,1.2-0.7,2.5-1.4,3.5
		c-3,4-6.4,7-11.4,8.6c-2.2,0.7-4.4,3.1-5.7,5.2c-1.8,3.2-2.7,7-4.2,10.4c-0.4,0.8-1.7,1.1-2.4,1.8c-0.7,0.6-1.5,1.4-1.8,2.2
		c-0.5,1.3-0.6,2.8-1.2,4.2c-1.2-2.4,1.5-6.3-2.6-7.2c-3.6,9.2,0.9,18.3-0.2,27.4c-1.2-4.1,0.8-9-4.6-12.1c0.4,4.2,0.8,8.3,1.2,12.4
		c-0.3,0.1-0.6,0.1-0.9,0.2c-0.7-2.9-1.7-5.7-1.9-8.6c-0.4-6.2-0.5-12.4-0.5-18.7c0-2.3-1.3-2.9-3.1-2.6c-3.2,0.6-6.3,1.4-9.4,2.1
		c-1.6,0.4-3.1,0.7-4.7,1.1c-3.9,0.7-7.1-0.5-10.4-2.6c-2.5-1.6-5.5-2.5-8.3-3.6c-0.4,0.4-0.8,0.8-1.2,1.2c1.2,1.9,2.1,4.3,3.7,5.7
		c2.5,2,2.9,4,2.1,6.8c-0.7,2.3-1.3,4.7-2.8,6.9c0.5-2,0.9-4,1.4-6c0.7-3,1.3-5.9-2.6-7.5c-0.7-0.3-1.2-1.5-1.5-2.4
		c-0.6-2.2-0.9-4.2-3.5-5.3c-0.9-0.3-1.2-2.6-1.4-4c-0.3-2.1-0.3-4.3-0.4-6.5c-0.4,0-0.9,0-1.3,0c-0.7,10.8-1.4,21.5-2,32.3
		c-0.3,0-0.5,0-0.8,0c0-8.2,0-16.4,0-24.7c-0.2-0.1-0.4-0.2-0.5-0.3c-0.8,2.2-2.1,4.2-2.4,6.5c-0.9,6.9-1.4,13.9-2,20.9
		c-0.1,1.5-0.4,2.9-1.4,4.4c-0.2-0.9-0.5-1.7-0.5-2.6c0-2.2-0.1-4.5,0.2-6.7c1.1-7.5-1.2-14.3-3.8-21.1c-0.3-0.7-0.7-1.6-1.3-1.8
		c-6.4-1.5-6.7-7.1-8-12c-0.3-1.2-0.6-2.4-1.1-4.3c-6.9,6.5-13.4,12.7-20.6,19.6c-1.2-2.7-1.9-5.1-3.3-7.2c-1.4-2.1-3.3-3.7-5.1-5.5
		c-0.3,0.1-0.7,0.3-1,0.4c0,9.9,0,19.7,0,29.6c-0.4,0-0.7,0.1-1.1,0.1c-1.1-5.5-5.2-10.2-3.9-16.5c0.7-3.6,0.7-7.5,0.6-11.2
		c-0.2-7.2-4.2-12.5-9-17.4c-1-1-2.1-1.8-3.1-2.6c-0.9,1.4-1.7,2.8-2.4,4.1c-0.3-0.1-0.6-0.3-1-0.4c0.2-2.2,0.5-4.4,0.8-7.6
		c-2.5,0.8-4.6,1.1-6.4,2.1c-5.5,3.1-11,4-17.3,2.9c-5.2-1-9-3.9-13.1-7.4c3.4-0.2,6.3-0.3,9.1-0.5c0-0.6-0.1-1.1-0.1-1.7
		c-4,0.5-8.1,0.9-12.8,1.5c1.1-1.4,1.9-2.4,2.9-3.8c-1.1-0.5-2.4-1-3.7-1.6c0-0.2,0-0.3,0-0.5c1.5,0.1,2.9,0.2,4.8,0.4
		c-1.3-1.2-2.3-2.1-2.7-2.5c0.9-4.9,1.8-9.3,2.7-14.2c3.1,3,5.6,5.5,8.2,7.8c3.3,3,6.1,6.1,6.9,10.8c0.2,1.1,2.2,2.3,3.5,2.8
		c1.5,0.5,3.2,0.1,4.2,0.1c-0.7-4.4-1.4-8.8-2.2-13.9c5.1,2.6,7.3,6.4,8.1,11.3c0.9,5.2,1.1,5.2,7.1,4.8c-2.4-3.9-4.7-7.6-6.9-11.3
		c2.6,2.9,5.2,5.7,8.4,9.2c0.5-2,0.6-2.6,0.8-3.2c1.4-4.2,1.1-9.1,4.7-12.5c0.1-0.1-1.2-2.3-1.9-2.3c-4-0.2-8-0.2-11.9,0
		C32.1,119.3,31.5,120.9,33.2,124.2z M169.7,116c2.7-1.2,5.5-2.3,8-3.7c1.2-0.7,2-2,3-3.1c-1.2-0.7-2.3-1.3-3.5-2.1
		c-0.5-0.3-1.1-0.7-1.5-1.1c-2.4-2.6-5-1.5-7.5-0.3c-0.6,0.3-1.2,1.7-1,2.4C167.9,110.7,168.8,113.2,169.7,116z M228.7,125.1
		c-3,6.1,2.5,11.8-0.9,17.7c-0.2,0.4,0.6,1.4,1,2.3c3.6-4.1,7.9-7.5,6.2-13.6c-0.5-1.7-1.3-3.3-2-4.9c-1.1,0.8-2.2,1.7-3.3,2.5
		c-0.1,0.1-0.4,0-0.4,0C229.2,127.7,229,126.4,228.7,125.1z M200.6,99.6c3,2.7,5.6,5.1,8.5,7.8c0-4.2,0-7.7,0-11.8
		C205.9,97.1,203.6,98.2,200.6,99.6z M141.9,177.5c0.1,0.4,0.1,0.8,0.2,1.3c3.5-0.5,6.9-0.9,10.4-1.4
		C148.6,174.5,145.3,176.2,141.9,177.5z M175.7,172.8c-1.5,0.4-2.9,0.8-4.3,1.2c-0.2,1.6-0.4,3.3-0.6,5.9
		C174.9,178.3,174.5,174.9,175.7,172.8z"/>
	<path d="M488.5,173.3c0.7-1.4,1.4-2.8,2.2-4.5c-3.4-1.8-6.2-1.3-9,1.1c-4.9,4.4-11.4,5.3-17,1.9c-3.6-2.2-7-4.8-10-7.7
		c-3.2-3.1-5.3-6.8-4.4-11.8c0.4-2.1-0.4-4.4-0.5-6.6c-0.1-3-2-6.4,1.3-9c0.4-0.3,0.6-1.4,0.4-1.7c-2.7-2.6,0.1-4.9,0.2-7.4
		c0.1-1.2-0.6-2.7-1.4-3.6c-2-2.4-3.9-4.5-0.1-6.9c0.5-0.3,0.6-1.8,0.5-2.7c-0.2-1.3-0.9-2.6-1.1-4c-0.4-2.4-1.1-5,2.7-5.7
		c1-0.2,1.9-1.5,3.2-2.6c-2-1.4-3.7-2.7-5.4-3.9c-1.7-1.1-3.5-2.1-5.5-3.4c5.6-0.8,8.4,3.1,12.2,6.6c1-2.2,1.8-3.9,2.7-5.9
		c-1.4-0.1-2.2-0.1-3-0.2c0-0.3-0.1-0.5-0.1-0.8c1.1-0.2,2.2-0.5,3.4-0.7c1.2-2.6,2.4-5.4,3.7-8.3c-1.9-1.6-3.9-3.1-5.7-4.8
		c-3.4-3.2-2.9-5.8,2.2-8.2c-0.8,1.3-1.4,2.2-2.4,3.8c2-1.1,3.3-1.8,4.6-2.5c0.1,0.2,0.3,0.4,0.4,0.6c-0.8,0.8-1.5,1.7-2.1,2.2
		c3.9,3.8,7.7,7.4,11.4,11c2.3-3.2,5.2-3.8,8.5-1.7c0.4,0.3,0.8,0.6,1.2,0.9c5.5,4,6.8,3.5,8.3-3.9c0.8,2.4,1,4.2,1.9,5.5
		c0.8,1.2,2.3,2.3,3.7,2.8c0.5,0.2,1.7-1.3,3.5-3.7c1.1,1.5,2.2,3,3.8,5.1c-5.2,2.5-2.2,5.8-2,9c0.4,6,0,12,0,18
		c0,8.2,0,16.4,0,24.9c-1.6,0-2.6,0-3.5,0c-1,3.8-1.9,7.5-2.8,11.4c-4-2.5-5.8-1.7-8.4,1.5c-2.1,2.6-4.9,4.6-7.5,6.8
		c-3,2.4-6.1,4.7-9.6,7.3c6,1.8,9.4-1.6,13.3-4.1c1.2-0.8,2.8-1.5,4.1-1.4c8,0.5,15.5-0.9,22.6-4.6c-1-1.7-2.1-3.4-3.1-5.1
		c0.1-0.1,0.3-0.2,0.4-0.3c0.9,0.7,1.7,1.5,3.5,2.9c-1.5-4.8,0.8-9.3-2.7-12.8c-0.3-0.3,0.4-1.9,0.8-2.9c0.4-0.9,1.7-1.8,1.6-2.3
		c-2.1-6,2.5-12.6-1.8-18.4c-0.3-0.4-0.5-1.5-0.3-1.8c3.9-4,1.5-8.8,2-13.2c0.7-6,7.8-12.6,13.8-14.3c2.5-0.7,4.5-3,7.2-5
		c-4-2.2-6.8-3.8-9.3-5.1c-0.9-3.2-1.7-6.5-2.7-9.7c-0.9-2.8-0.6-5.6-0.8-8.4c-0.2-2.7,1.5-5.4,0.3-7.6c-1.3-2.4-3.5-4.6-5.9-6
		c-2.6-1.5-5.9-2-8.8-2.9c-0.4-0.1-0.8-0.4-1.6-0.7c0.8-0.6,1.4-0.9,2.8-1.9c-4.3-0.8-7.8-1.5-11.3-2c-8.7-1.2-17.4-2.5-26.2-3.2
		c-5.5-0.4-11.1,0.4-16.6,0.7c-0.8,0-1.7,0.1-2.5,0.1c-0.1-0.4-0.2-0.8-0.3-1.2c4.3-1,8.6-2,13.4-3.1c-3.4-1.4-6.5-3.6-9.7-3.6
		c-4.5,0-7.7-2.7-11.5-3.8c-1.5-0.4-3.2-0.5-4.9-0.8c3.9-4.1,7.8-0.9,11.6-0.2c2.1,0.4,4.3,0.4,6.3,1.1c5.4,1.9,10.8,4,17,6.3
		c-1.6-1.7-2.7-2.8-3.8-4c0.3,0,0.6-0.2,0.7-0.1c6.2,6.9,14.9,5.1,22.5,5.4c6.1,0.2,11.1,2.6,16.5,4.3c4.8,1.5,9.7,2.6,14.6,4
		c1.9,0.5,4.1,0.9,5.4,2.2c0.9,0.8,0.5,3,0.7,4.6c0.3,3,4.7,6.5,7.8,6.1c1.5-0.2,2.9-0.4,4.6-0.6c0,1.3,0,2.7,0,4
		c-0.1-4.9-4-2.5-5.3-1.9c-1.9,0.8-3.1,3.1-4.6,4.8c0.6,0.5,1.2,1.3,1.9,1.5c1.3,0.3,2.7,0.3,4.1,0.5c-0.1,0.3-0.1,0.6-0.2,0.9
		c-0.6,0.3-1.2,0.6-2.8,1.5c4.1,1.5,7.3,2.7,10.7,4c0.4,1.7,0.8,3.7,1.5,6.8c2-1.8,3.5-3.1,5.8-5.2c1.2,1.2,3.2,3.1,4.5,4.4
		c1.9-1.4,3-2.8,4.4-3c2.2-0.4,2.9,1.3,3.5,3.3c1.3,4.2,1.2,7.9-0.6,12c-0.8,1.9,0.3,4.9,1,7.3c0.6,2,1.6,3.2-1,4.9
		c-3.2,2,1,2.6,1,4.2c2.6-1.7,5.2-3,7.1-4.8c0.9-0.9,1.1-3.1,0.8-4.5c-0.5-2-1.3-3.4,1.5-4.3c0.8-0.2,1-2.2,1.6-4
		c1.5,3.1,2.7,5.8,4.5,9.7c1.2-2.3,1.9-3.8,2.4-4.9c-2.2-2.9-4.9-6.5-7.6-10c6-0.8,9.7,1.7,12.1,6.3c7.3-7.6,2.8-15.7-4-20.5
		c2.1-3.4-0.2-5.5-2.3-7.8c-1.4-1.5-2.5-3.4-3.3-5.3c-1.5-3.8-3.5-6.9-7-9.4c-3.4-2.4-6-5.9-9.2-8.6c-1.4-1.1-3.3-1.6-5-2.3
		c-8.1-3-16.3-5.9-24.4-9.1c-5.8-2.3-11.5-4.9-17.3-7.4c-0.9,3.2-1.6,5.4-2.2,7.7c-0.5,0.1-0.9,0.1-1.4,0.2c-1-1.7-2.1-3.4-2.8-5.2
		c-1.3-3.4-2.3-6.9-7.2-7.1c0.7-0.5,1.5-0.9,1.6-1c-0.6-3.5-1.2-6.7-1.9-10.3c-0.7,1-1.2,1.7-2.2,3.1c-0.4-2.4-0.8-4-0.8-5.7
		c0-1,0.7-2.8,1.3-2.9c1.5-0.2,3.3,0.1,4.7,0.7c1.1,0.5,1.8,2,2.9,2.8c3.1,2.4,5.1,5.1,5.4,9.3c0.5,7.3,6.6,8.6,12.2,10.1
		c1.9,0.5,3.9,0.8,6,1.2c0.1-0.7,0.1-1.3,0.2-2.1c0.3,0.2,0.5,0.3,0.6,0.5c1.9,2,3.5,4.7,5.8,5.8c4.4,2,9.1,3.2,13.8,4.6
		c4.6,1.3,9.3,2.4,15.2,4c-6.4-7.9-12.1-15-17.8-22c0.2-0.2,0.4-0.4,0.6-0.6c1.9,1.8,3.7,3.7,5.6,5.5c2.2,2.1,4.6,4,6.7,6.3
		c1.3,1.5,2.3,3.3,3.3,5c0.5,0.8,0.8,1.8,1.5,2.5c4,4.2,8.8,7.7,10.8,13.5c0.2,0.5,0.9,0.8,1.3,1.3c2.1,2.1,3.5,4.5,4.7,7.4
		c2.1,4.9,5.8,9.1,9.2,13.3c0.7,0.8,3,0.8,4.3,0.4c0.6-0.1,1.3-2.5,0.9-3.2c-2.6-4.1-0.6-8.1,0.4-12.3c0.7,2.5,1.4,4.9,2.2,7.8
		c7.9-6.7,11.3-15.3,14.7-24.9c1,2.9,1.7,5.1,2.4,7.1c-1.7,3.6-3.5,7.5-5.4,11.4c-0.3,0.7-0.9,1.2-1.4,1.8c-0.9,1.1-2,2.1-2.8,3.3
		c-1.6,2.3-3.1,4.6-4.5,7c-0.4,0.7-0.4,1.6-0.6,2.5c-0.5,3.2-1.1,6.4-1.5,9.6c-0.1,0.8,0.5,1.6,0.9,3.1c-3.8,3.5-5.4,8.7-6.3,14.5
		c-0.3,2.1-2.8,4-4.6,5.6c-4.3,3.6-6.9,7.9-7.9,13.4c-0.3,1.7-1.5,3.2-2.3,4.8c-0.8-1.9-1.7-3.8-2.5-5.7c-1.8,1.3-4.5,2.2-5.1,3.9
		c-1.2,3.7-1.4,7.8-1.9,11.7c0.4,0.1,0.8,0.2,1.1,0.3c1.8-2.1,3.6-4.2,5.4-6.2c-2.2,3.8-4.4,7.7-6.8,11.8c3.9,0.1,6.7-0.4,6.9-4.9
		c0.3-5.1,2.9-8.7,8-11.4c-0.8,5-1.6,9.4-2.3,13.9c0.2,0,1-0.1,1.8,0c4.2,0.8,5.3-1.6,7-5.1c2.3-4.6,6.2-8.4,9.6-12.5
		c1-1.3,2.5-2.2,4.5-3.8c0.9,4.6,1.8,9,2.8,14c-0.1,0.1-0.9,0.9-2,2.2c1.6,0,2.7,0,3.8,0c0,0.2,0,0.4,0.1,0.5
		c-1.6,0.6-3.1,1.1-5,1.8c1.4,0.8,2.6,1.4,3.7,2c-0.1,0.4-0.2,0.8-0.4,1.2c-3.9-0.4-7.8-0.8-11.7-1.2c-0.1,0.5-0.1,1-0.2,1.5
		c2.8,0.2,5.5,0.4,8.9,0.6c-1.7,1.4-3.1,2.8-4.6,3.8c-7.3,4.6-15,5.7-23,2c-4.2-2-7.1-0.7-8.1,3.8c-0.2,0.8,0.4,1.9,0.9,2.6
		c0.9,1,2.1,1.7,3.6,2.8c3.2-1.6,6.6-1.3,9.2,2.1c-0.4,1-0.8,2-1.4,3.8c1.9-0.4,3.1-0.6,4.2-0.9c0,0-0.1-0.1-0.1-0.1
		c-1,1.3-2,2.5-3.5,4.4c-0.1-0.4,0.1,0.2,0-0.1c-2.1,2.6-3.7,4.8-5.4,6.8c-0.8,0.9-1.9,1.4-3,1.8c-3.2,5.8-4,12-1.8,18.5
		c0.3,1,0.1,2.2-0.2,3.3c-0.5,2.2-1.8,4.3-1.7,6.5c0.2,5.7-3.9,8.7-6.8,12.5c-1.5,2-3.1,4.1-4.6,6.2c-0.3-0.2-0.5-0.3-0.8-0.5
		c1-1.6,2-3.2,3.1-4.7c4-5.7,7-11.8,6.8-18.9c0-1.9-1-3.7-1.6-5.5c-0.4-1-1.2-2-1.3-3c-0.4-4.6-0.6-9.1-1-14.4
		c-0.9-0.5-2.6-1.4-5.2-2.7c-0.7,2.7-1.6,5-1.9,7.4c-0.3,2.6-0.2,5.3,0,7.9c0.9,8.2-2.7,14.9-7.3,21.5c5.2-15.7,3.2-31.5,2-47.2
		c-4.4,5.5-9.3,9.4-16.7,10.7c0.8,0.6,1.1,0.8,1.4,1c0.3,0.2,0.6,0.3,1.6,0.7c-1.1,0.7-1.9,1.3-2.7,1.5c-4.6,1.1-6.4,3.4-7.1,8.1
		c-0.8,4.9-1.8,9.8-3.2,14.6c-0.8,3-2.6,5.6-3.7,8.5c-2.3,6.4-1.4,8,5.2,9.8c3.8,1.1,3.8,1.1,3.6,3.8c-1.8-0.8-3.6-1.8-5.5-2.3
		c-4.7-1.1-7.1-3.7-6.4-8.2c-2.8,1.3-5.3,2.5-7.9,3.7c-0.3-0.3-0.7-0.5-1-0.8c12.6-8.7,12.9-21.4,11.9-34.8c-1.8-0.2-3.6-1-4.7,1.8
		c-0.3,0.8-2.4,1.7-3.3,1.4c-2.7-1-5.1-2.5-7.6-3.8c4.8-0.2,9.6-0.4,14.5-0.6c0-0.4,0.1-0.9,0.1-1.3c-2.1-1.3-4.2-2.6-6.2-3.8
		c0.4-0.5,0.8-1,1.2-1.5c-4.3,1.2-8.7,2.5-13.3,3.8c1.2,1,2.1,1.7,3,2.5C497.6,167.3,492.8,169.1,488.5,173.3L488.5,173.3z
		 M542.5,135.7c2.7-2.6,5.6-6,3-9.1c-3-3.5-2.9-6.6-2.7-10.7c0.3-5.9-1.1-11.9-1.8-18c-4.4-0.7-3-5.8-6.1-8.8
		c-0.6,2.5-1.2,4.6-1.8,7c-0.5-1.5-1-2.7-1.4-3.9c-0.3,0-0.6,0.1-0.9,0.1c-0.8,8.6-1.6,17.1-0.4,26.4c-2.3,1.1-1.8,3.3-0.2,6
		c2.1,3.7,0.5,7-1.4,10.4c-0.6,1.1-0.2,2.8,0,4.3c0.1,0.8,0.7,1.5,1.2,2.5c1.4,0,3,0,5.1,0c-2.3,0.8-3.8,1.4-5.7,2
		c3.9,3.8,4.6-0.8,6.6-1.5c1-0.3,2-0.7,3-1.1c0.1,0.3,0.1,0.5,0.2,0.8c-0.7,0.5-1.4,0.9-1.9,1.2c1.2,1.8,2,3.1,2.9,4.3
		C543.9,143.4,544.7,140.1,542.5,135.7z M471.7,103.3c-0.7,4.4-1.4,8.3-1.9,12.3c-0.1,0.4,0.5,0.9,0.5,1.4c0,5.3,0.5,10.7-0.3,15.9
		c-1,6.5,0.3,12.4,2.8,18.1c0.9,2.2,3.1,3.8,5.2,6.2c1-1.4,3.2-3,3.2-4.6c0.3-13.5,0.1-27,0.1-40.5c0-3.1-1.6-3.9-4.3-2.3
		C475.4,107.8,473.7,105.8,471.7,103.3z"/>
	<path d="M329.1,119.8c1.4-0.6,2.8-1.2,4.9-2.1c-4.7-2.7-4.8-5.2-1.7-8.1c0.5-0.5,0.5-1.8,0.4-2.7c-0.4-4.2-0.9-8.4-1.4-12.8
		c7.9,1.3,9.4,0.3,12.5-6.9c0.9-2,2-3.9,2.9-5.9c0.8-1.8,1.3-3.7,1.9-5.6c0.3,0.1,0.6,0.2,0.9,0.3c-1.3,4-2.6,7.9-3.9,11.9
		c2.5,1.2,2.5,1.2,12-7.1c-1,2.9-1.6,6.1-3,8.8c-2.5,4.8-3.8,9.6-1.9,15c0.4,1.2-0.3,2.8-0.5,4.2c-0.5,4.7-1.3,9.4-1.4,14.2
		c-0.1,3.1,0.4,3.1,5.5,6.8c-1.6-0.4-3.2-0.7-5.6-1.3c1,5.6,1.6,11,2.9,16.1c1.1,4.3,4.8,5.9,9.2,4.6c0.7-0.2,1.6-1.5,1.6-2.4
		c0.5-12.8,1-25.7,1.3-38.5c0-2.6-1-5.1-1.5-7.7c-0.2-1-0.3-2.1-0.5-3.7c4.8,2.1,4.7-2.2,6.2-4c1.6-1.8,1.9-4.4,5.6-4.4
		c2,0,4-3,6.5-5.1c0.3,1.7,0.8,3.2,0.8,4.7c-0.2,7.7-0.3,15.5-1.1,23.2c-0.3,3-2.5,5.7,0.2,8.6c0.1,0.1-0.1,0.5-0.1,0.7
		c-1,4.7-0.7,6.5,1.7,9.2c-0.8,1.6-2.5,3.4-2.1,4.3c2.6,6-1.9,10-3.7,14.7c-2.4,6.3-4.8,12.5-3.5,19.5c1.2,6.6,2.1,13.3,3,19.9
		c0.2,1.4-0.1,2.9-0.7,4.3c-1.4-5.3-3.1-10.5-4-15.9c-0.9-5.3-1.1-10.8-1.7-17.3c-3.2,4-6.1,7.3-8.5,11c-0.7,1-0.2,3.1,0.2,4.5
		c0.7,2.4,1.8,4.6,2.6,7c1.4,4.3,3,8.7,4,13.1c0.6,2.7,1.1,5.9,0.3,8.4c-1.5,4.5-4.2,8.6-6.3,12.9c-0.4-0.1-0.8-0.2-1.2-0.4
		c0.5-2.1,0.9-4.1,1.4-6.2c0.3-1.2,0.4-2.6,1.1-3.5c4.9-6.6,1.4-12.6-1.5-18.5c-0.2-0.4-0.4-1.2-0.7-1.3c-6-0.7-5.2-5.8-6.4-10.8
		c-1.2,2.2-2.1,3.6-2.8,5.1c-5.8,13.8-7.1,28.5-8.6,43.2c-0.1,1.4-0.5,2.7-0.8,4.1c-0.4,0-0.7,0-1.1,0c-0.1-1.1-0.4-2.3-0.4-3.4
		c0.2-4.5,0.4-9,0.9-13.5c1-9.2,2.4-18.3,3.3-27.4c0.2-1.7-1.2-3.5-2.7-5.1c-0.5,1.7-1,3.4-1.5,5.1c1.8-7.9-2.8-13.7-5.8-20.2
		c-1.6-3.3-1.6-7.4-2.2-11.1c-5.6,3-11.7,22.2-10.1,32.2c-3.4-1-5,0-5.5,3.8c-0.5,3.9-0.9,7.9-0.9,11.9c0,4.6-2.7,7.7-5.7,10.9
		c6.7-10,3.2-20.8,3.3-32.2c-1.9,1.5-2.8,2.3-3.8,3.1c4.2-6.6-4.5-8.7-4.2-14.3c-2.3,1.4-4,2.4-6,3.6c-0.1,0.8-0.3,1.7-0.2,2.7
		c0.9,11.1-1.9,21.4-5.6,31.7c-1.5,4.1-0.7,9-1,13.6c-1.9-3.7-2.3-7.7-1.5-11.8c0.4-2.3,0.9-4.7,2-6.8c3.5-6.9,3.6-14.3,2.4-21.6
		c-0.9-5.5-0.7-10.7,1-15.9c0.3-0.9,0.3-1.9,0.4-2.4c-1.4-1.6-2.6-2.9-3.8-4.1c0.2-0.2,0.4-0.5,0.6-0.7c1,0.7,2.1,1.3,3.5,2.2
		c0-1.5,0-2.5,0-3.9c-5.9,0-7.5-5.2-10.5-8.7c0.7-0.9,1.3-1.6,1.8-2.4c2.4-3.7,4.6-7.5,7.2-11c5.6-7.5,5.7-15.9,3.7-24.3
		c-0.8-3.5-3.7-6.6-6.1-10.8c2-1.2,4.6-2.5,6.7-4.3c1.8-1.5,2.9-3.8,4.4-5.6c1.2-1.4,2.5-2.8,4-3.7c0.5-0.3,2,1.2,3,1.9
		c1.5,1.1,3,2.1,3.5,3.6c0.8,2.7,1.7,5.4,2.4,8.2c1.2,4.8,2.7,9.6,3.1,14.4c0.3,2.8,0.7,4.6,3.4,5.8c1.4,0.6,2.4,2,3.6,3
		c-2.2-0.8-4.4-1.7-6.5-2.5c-0.2,0.4-0.4,0.8-0.6,1.2c3.1,2.3,6.2,4.7,9.5,7.1C332.7,122.5,331.1,121.1,329.1,119.8z M324.8,151.9
		c0.6-0.7,1.1-1.9,2.1-2.6c5.1-3.6,6.6-8.5,5.5-14.4c0-0.1,0-0.2,0-0.4c-0.2-4.7-3.7-8.9-9-10.3C320.5,133.7,317.2,143,324.8,151.9z
		 M321.9,121.7c-0.4-0.1-0.8-0.1-1.2-0.2c-0.3,0.8-0.3,1.8-0.8,2.4c-1.4,1.5-3.1,4.1-4.5,4c-2.8-0.2-3.1,1.5-3.2,3
		c-0.2,2.2-0.5,4.9,0.5,6.5c1.2,1.8,3.9,2.5,6.2,3.8C319.9,134.6,320.9,128.2,321.9,121.7z M302.8,159.6c-0.3,0.1-0.7,0.3-1,0.4
		c-0.3,2.7-0.6,5.4-0.9,8.1c0.3,0.1,0.5,0.2,0.8,0.2c1.4-1.3,2.8-2.6,4.3-4.1C304.9,162.7,303.9,161.1,302.8,159.6z M354.1,169.8
		c-4.2,2.6-4.8,6.6-4,11.5C351.5,177.1,352.8,173.4,354.1,169.8z M359.9,176.8c-0.6,0.2-1.2,0.4-1.9,0.6c0.8,2.4,1.7,4.8,2.5,7.2
		c0.5-0.2,1.1-0.4,1.6-0.5C361.4,181.7,360.7,179.3,359.9,176.8z"/>
	<path d="M396.2,172.5c-2.7-6.7-5.8-12.8-7.5-19.3c-0.9-3.6,0.6-7.9,0.8-11.8c0.2-3,0-5.9,0-8.9c0-1.6,0.5-3.1,0.6-4.7
		c0.3-3.8,0.4-7.6,0.6-11.4c0-0.3-0.6-0.6-0.8-1c-2.1-4.2-1.7-12.9,2.2-14.9c1.3-0.7,3-0.7,5.1-1.2c2.1-5.2,4.7-11.5,7.3-17.9
		c1.7,2.3,3.6,2.4,5.4-0.8c1.3-2.4,3.1-4.7,5.2-6.7c-0.6,1.9-1.3,3.9-2.2,6.6c6.7,0.7,10.6-3.5,15.2-6.7c4.6-3.1,9.6-5.5,11.8-11.2
		c-0.4,1.4-0.7,2.9-1.4,5.3c3.8-1,6.8-1.8,10.2-2.7c-2,1.8-3.6,3.6-5.5,4.8c-1.2,0.7-2.9,0.6-4.3,1c-0.6,0.2-1.1,0.6-1.6,0.9
		c-7,4.2-14,8.5-21.1,12.8c4.1,3.4,6.2,2.9,9.5-0.7c2.6-2.9,6.1-5,9.2-7.4c0.2,0.2,0.4,0.4,0.7,0.7c-3.3,3.1-6.7,6.2-9.6,9
		c1.2,2.7,2.3,5.1,3.5,7.4c1.8,3.6,3.1,3.8,6.2,1.3c2.1-1.7,3.8-1.3,4.4,1.8c0.7,4.4,1,8.9,1.1,13.3c0.1,3.9-0.3,7.7-0.5,11.6
		c-0.1,1.3-0.7,2.6-0.9,3.9c-0.2,1.8-0.5,3.7-0.4,5.6c0.1,4.1,0.5,8.2,0.4,12.2c0,0.8-2.1,1.5-3.2,2.2c-0.3-0.2-0.6-0.4-0.9-0.6
		c0,2.1,0,4.2,0,6.9c-1.1-1-1.7-1.5-2.1-1.9c-2.3,5.6-4.5,11.1-6.7,16.6c-0.5-0.1-0.9-0.2-1.4-0.3c0.2-1.5,0.3-3.1,0.7-4.5
		c0.4-1.5,1.2-2.9,1-4.8c-1.1,1.7-2.1,3.4-3.2,5.2c-5.1-2.9-6.7-2.2-8.4,3.5c-0.9,2.9-1.8,5.7-3.1,8.4c-0.4,0.8-2.5,1.8-3.1,1.5
		c-3.6-2.1-6.9-4.5-10.5-6.9C397.8,170.1,397.2,171,396.2,172.5z M410.1,103.5c0,17.8,0,34.4,0,51c0.2,0,0.4,0.1,0.7,0.1
		c0.3-0.8,0.6-1.6,1.1-2.8c1.5,3.3,3,2.2,4.5-0.1c1.1,2.8,1.9,5.1,3.1,8.2c0.8-1.3,1.3-1.8,1.3-2.3c-0.1-5.9,1.1-11.9-0.8-17.7
		c-0.3-0.9-0.3-1.9-0.2-2.8c0.1-3.8,0.3-7.6,0.5-11.3c0.2-4.4-2.5-9.1,1.8-13c0.3-0.2-0.1-1.3-0.3-2c-0.4-1.2-1-2.4-1.5-3.8
		c-0.3,0.1-1.1,0.3-1.3,0.3c-1.3-2.4-2.5-4.5-3.7-6.6c-0.3,0.1-0.5,0.2-0.8,0.3c-0.1,1.6-0.2,3.1-0.3,4.8
		C413.1,105.1,412.2,104.6,410.1,103.5z"/>
	<path d="M245,145.2c0.8-0.2,2.6-0.4,2.6-0.8c0.3-2.4,0.1-4.8,0.1-6.9c0.2-2.3,0.4-4.3,0.5-6.2c0.3-4.5,0.5-9,0.7-13.5
		c0.1-2.1,0.1-4.2-0.1-6.3c-0.4-4.3-0.9-8.5-1.3-12.7c-0.5-0.1-1-0.2-1.5-0.4c-0.8,2.1-1.6,4.2-2.6,6.7c-0.6,0-0.5,0-1.1-3.6
		c-0.3-1.8-1-3.5-1.9-6.4c-0.8,2.9-1.3,4.7-1.9,6.8c-3.1-1.9-5-3.7-4-7c1.3-4.4,3.2-5.5,8.6-2.7c4,2.1,5.4,0.2,6.4-2.7
		c0.9-2.8,2.2-4.7,5.3-5.1c0.7-0.1,1.3-0.7,1.8-1c1.4,0.6,3,1.2,4.4,2c0.5,0.2,1,0.7,1.1,1.2c0.4,2.1,1.1,3.6,3.6,4.2
		c0.7,0.2,1.3,1.9,1.6,3c0.4,1.4,0.3,2.9,1,4.3c3.8-4.4,3-9.7,3.2-15.8c1.9,0.7,3.5,1.5,5.3,1.9c1,0.3,2.2,0.3,3.1-0.1
		c5.1-2.4,10.1-4.9,15.5-7.2c-1.7,1.5-3.4,3-5.2,4.5c-1.4,1.1-3.4,1.9-4.1,3.3c-1.8,4-0.7,5.7,4.1,7.3c-1.6,5.1-3.1,10.2-4.3,14
		c-2.1,2-3.5,3.4-5.4,5.3c-0.4-0.7-0.8-1.5-1.2-2.2c-0.5,0.1-0.6,0.1-0.7,0.2c-0.7,0.8-1.4,1.7-2.3,2.8c-1.8-2.6-3.5-5-5.4-7.8
		c-0.4,1.1-1,2-1,2.9c-0.1,4.2-2.9,8.1-1.2,12.7c0.4,1-1.7,2.9-2.5,4.3c0.6,3.1,1.2,6.4,1.7,9.7c-4.8,1.5-4.9,2.5-2.8,6.2
		c2,3.4,3.3,7.2,5,10.7c0.3,0.7,0.8,1.2,1.3,2c1-0.5,2-0.9,3.5-1.7c-0.6,1.6-1,2.7-1.6,4.3c1.6,0,2.8,0,4.1,0
		c-3.3,5.2-5.8,10.7-9.7,14.7c-1.5,1.5-3.1,3.4-4.9,4.8c-0.4,0.4-1.5,0.5-2,0.2c-5-2.8-8.5-1-11.3,3.4c-0.1,0.2-0.4,0.2-0.6,0.3
		c0.8-5.1,3.7-6.7,12.5-6.2c-1.9-2.8-2-6.4-6.7-5.7c-0.8,0.1-2.5-2.2-3-3.7c-1.3-3.9-1.8-8-3.1-11.8
		C247.6,149.2,246.1,147.2,245,145.2z"/>
	<path d="M211.7,83.7c-3.2-1.9-5.6-3-7.7-4.5c-1.3-0.9-2.1-2.4-3.2-3.6c2.8-3.8,5.5-7.5,7.6-10.5c3.3,2,6.1,3.9,9,5.6
		c2.5,1.5,2.4,2.9,0.6,5C215.6,78.4,213.4,81.5,211.7,83.7z"/>
	<path d="M488.4,173.2c-0.7,2.3-1.3,4.3,0.4,6.8c1.2,1.9,0.6,5.1,0.8,7.7c0.2,3,0.5,6,0.3,9.1c-1-6.1-1.9-12.3-3-19.1
		c-8.2,7-17.5,9-26.3,12.2c-0.2-0.4-0.4-0.7-0.7-1.1c1.1-0.7,2.1-1.5,3.2-2.1c6.3-2.9,12.7-5.6,19-8.7
		C484.3,176.9,486.3,174.9,488.4,173.2C488.5,173.3,488.4,173.2,488.4,173.2z"/>
	<path d="M240.8,142.7c0.1,9.1,5.7,16.1,8.8,24.1c0.1,0.3-0.4,0.8-0.7,1.5C244.8,160,238.8,152.7,240.8,142.7z"/>
	<path d="M48.4,87.6c0.4,0.4,0.8,0.7,1.6,1.4c0.4-2.1,0.8-3.9,1.2-5.7c0.2,0,0.4,0,0.5,0.1c0.2,5,0.4,9.9,0.7,14.9
		c-0.3,0.1-0.6,0.3-0.9,0.4c-1.5-3.5-2.9-6.9-4.4-10.4C47.5,88.1,48,87.9,48.4,87.6z"/>
	<path d="M584.6,156c-0.2-0.5-0.7-1.4-0.7-1.4c2.4-1.2,4.8-2.4,7.4-3.3C589.6,153.7,588.7,157.3,584.6,156
		C584.5,155.9,584.6,156,584.6,156z"/>
	<path class="st0" d="M350.1,181.3"/>
	<path class="st0" d="M354.1,169.8"/>
</g>
</svg>
